#!OML:ASF H:\LiuWeirdWalks\Patient Classification 1\Patient 1\Session 1\male.ASF
:FULLY-SPECIFIED
:DEGREES
610
root 0.30543 17.9615 -15.8291 1.69026 5.92044 9.39044
lowerback 12.941 1.41534 7.19699
upperback 2.84084 3.38638 10.2266
thorax -4.48876 1.65361 6.2847
lowerneck -20.7019 0.45811 8.33087
upperneck 14.3952 3.10893 -25.6086
head 8.64147 -0.572673 -10.1588
rclavicle 5.24792e-014 1.36764e-013
rhumerus -24.4029 -35.9206 -10.5186
rradius 34.2706
rwrist -0.329215
rhand -22.3885 -0.0911234
rfingers 7.12502
rthumb 4.03358 -30.0327
lclavicle 5.24792e-014 1.36764e-013
lhumerus -24.7572 27.1453 28.8505
lradius 47.1914
lwrist 13.3111
lhand -18.5797 0.344874
lfingers 7.12502
lthumb 7.71088 30.1843
rfemur -10.4594 2.73307 6.90782
rtibia 35.8273
rfoot -15.2719 -28.2629
rtoes -0.553723
lfemur -12.6838 9.53104 -27.0112
ltibia 42.4178
lfoot -11.7116 16.4096
ltoes -15.7417
611
root 0.317626 17.9637 -15.7655 1.67346 5.75735 9.31464
lowerback 12.9335 1.42049 7.36228
upperback 2.85635 3.40933 10.2094
thorax -4.45834 1.66218 6.16842
lowerneck -20.6985 0.481683 8.27155
upperneck 14.4156 3.14987 -25.5266
head 8.65217 -0.550317 -10.1101
rclavicle -3.18055e-015 -4.45278e-014
rhumerus -24.4486 -35.955 -10.6974
rradius 34.1978
rwrist -0.251326
rhand -22.2228 -0.00957492
rfingers 7.12502
rthumb 4.19359 -29.948
lclavicle -3.18055e-015 -4.45278e-014
lhumerus -24.9711 27.1566 28.7137
lradius 47.2264
lwrist 13.2957
lhand -18.5988 0.255067
lfingers 7.12502
lthumb 7.6924 30.0952
rfemur -10.1532 3.12389 7.05206
rtibia 35.6392
rfoot -15.2726 -28.5803
rtoes -0.512938
lfemur -13.4002 10.3023 -27.0784
ltibia 42.3076
lfoot -11.6995 16.3723
ltoes -15.7169
612
root 0.329355 17.9673 -15.7022 1.66239 5.61223 9.2062
lowerback 12.9314 1.42346 7.52952
upperback 2.86861 3.43112 10.195
thorax -4.43417 1.6702 6.05451
lowerneck -20.6463 0.48648 8.1927
upperneck 14.3994 3.15842 -25.4203
head 8.63373 -0.537817 -10.0468
rclavicle 1.03368e-014 2.54444e-014
rhumerus -24.5003 -36.05 -10.8194
rradius 34.1218
rwrist -0.160044
rhand -22.0797 0.0727724
rfingers 7.12502
rthumb 4.33179 -29.8629
lclavicle 1.03368e-014 2.54444e-014
lhumerus -25.164 27.1689 28.6038
lradius 47.2401
lwrist 13.2685
lhand -18.6264 0.226885
lfingers 7.12502
lthumb 7.66572 30.0679
rfemur -9.83778 3.4719 7.23154
rtibia 35.4184
rfoot -15.2656 -28.8728
rtoes -0.471618
lfemur -14.127 10.9995 -27.1101
ltibia 42.1652
lfoot -11.6576 16.2891
ltoes -15.7036
613
root 0.340941 17.9718 -15.6397 1.66238 5.50578 9.09249
lowerback 12.9317 1.41564 7.67773
upperback 2.87503 3.43734 10.1765
thorax -4.41763 1.67079 5.94958
lowerneck -20.6076 0.502626 8.16419
upperneck 14.3557 3.16843 -25.3479
head 8.61088 -0.524111 -10.0056
rclavicle -2.38542e-014 -5.725e-014
rhumerus -24.5462 -36.1946 -10.8919
rradius 34.0488
rwrist -0.0806779
rhand -21.9696 0.159213
rfingers 7.12502
rthumb 4.43815 -29.7743
lclavicle -2.38542e-014 -5.725e-014
lhumerus -25.3437 27.1848 28.5165
lradius 47.2328
lwrist 13.2184
lhand -18.6378 0.228059
lfingers 7.12502
lthumb 7.65476 30.0695
rfemur -9.51232 3.74388 7.41096
rtibia 35.1686
rfoot -15.2463 -29.127
rtoes -0.445351
lfemur -14.8625 11.5939 -27.1382
ltibia 41.9873
lfoot -11.5836 16.1653
ltoes -15.7352
614
root 0.352076 17.9768 -15.5773 1.65693 5.42947 8.95884
lowerback 12.9502 1.39947 7.80511
upperback 2.8717 3.43454 10.1655
thorax -4.42289 1.66706 5.86616
lowerneck -20.5527 0.527172 8.18067
upperneck 14.2666 3.17563 -25.3152
head 8.57145 -0.509471 -9.98563
rclavicle -2.38542e-014 -7.31528e-014
rhumerus -24.5836 -36.3347 -10.9139
rradius 33.9883
rwrist -0.0384906
rhand -21.9169 0.199352
rfingers 7.12502
rthumb 4.48898 -29.7331
lclavicle -2.38542e-014 -7.31528e-014
lhumerus -25.5258 27.1716 28.4575
lradius 47.2187
lwrist 13.1916
lhand -18.6585 0.282131
lfingers 7.12502
lthumb 7.63479 30.1243
rfemur -9.16192 3.95002 7.60825
rtibia 34.89
rfoot -15.2131 -29.3397
rtoes -0.450332
lfemur -15.5867 12.0856 -27.1383
ltibia 41.7677
lfoot -11.4741 15.9998
ltoes -15.7867
